PathFileType	4	(X/Y/Z)	C:\Users\Basilio\Documents\Thesis Gigler\squatting_fais\c3dfiles\041\SLS_pre_front1\markers_experimental.trc
DataRate	CameraRate	NumFrames	NumMarkers	Units	OrigDataRate	OrigDataStartFrame	OrigNumFrames
200.000000	200.000000	4	62	mm	200.000000	1137	1517
Frame#	Time	FHD			LBHD			RBHD			C7			T10			CLAV			LSHO			LUUPA			LMUPA			LDUPA			LLEP			LMEP			LRAD			LUL			LRFIN			RSHO			RUPA1			RMUPA			RDUPA			RLEP			RMEP			RRAD			RUL			RUFIN			LASI			RASI			USACR			LSACR			RSACR			LTHI1			LTHI2			LTHI3			LTHI4			LLFC			LMFC			LTIB1			LTIB2			LTIB3			LTIB4			LLMAL			LMMAL			LHEE			LMT1			LMT2			LMT5			RTHI			RTHI2			RTHI3			RTHI4			RLFC			RMFC			RTIB1			RTIB2			RTIB3			RTIB4			RLMAL			RMMAL			RHEE			RMT1			RMT2			RMT5			*61			
		X1	Y1	Z1	X2	Y2	Z2	X3	Y3	Z3	X4	Y4	Z4	X5	Y5	Z5	X6	Y6	Z6	X7	Y7	Z7	X8	Y8	Z8	X9	Y9	Z9	X10	Y10	Z10	X11	Y11	Z11	X12	Y12	Z12	X13	Y13	Z13	X14	Y14	Z14	X15	Y15	Z15	X16	Y16	Z16	X17	Y17	Z17	X18	Y18	Z18	X19	Y19	Z19	X20	Y20	Z20	X21	Y21	Z21	X22	Y22	Z22	X23	Y23	Z23	X24	Y24	Z24	X25	Y25	Z25	X26	Y26	Z26	X27	Y27	Z27	X28	Y28	Z28	X29	Y29	Z29	X30	Y30	Z30	X31	Y31	Z31	X32	Y32	Z32	X33	Y33	Z33	X34	Y34	Z34	X35	Y35	Z35	X36	Y36	Z36	X37	Y37	Z37	X38	Y38	Z38	X39	Y39	Z39	X40	Y40	Z40	X41	Y41	Z41	X42	Y42	Z42	X43	Y43	Z43	X44	Y44	Z44	X45	Y45	Z45	X46	Y46	Z46	X47	Y47	Z47	X48	Y48	Z48	X49	Y49	Z49	X50	Y50	Z50	X51	Y51	Z51	X52	Y52	Z52	X53	Y53	Z53	X54	Y54	Z54	X55	Y55	Z55	X56	Y56	Z56	X57	Y57	Z57	X58	Y58	Z58	X59	Y59	Z59	X60	Y60	Z60	X61	Y61	Z61	X62	Y62	Z62	

1138	5.685	-216.3755187988282	1780.397216796875	-1082.033081054688	-390.5308227539064	1713.082275390625	-1162.13330078125	-373.4703063964844	1713.342163085938	-1010.042663574219	-429.5275268554689	1559.650268554688	-1097.412109375	-451.5988159179689	1247.2802734375	-1073.687377929688	-267.2362365722657	1511.789794921875	-1100.524291992188	-360.4349365234376	1567.517700195313	-1242.1123046875	-270.6434631347657	1554.00830078125	-1382.015502929688	-227.177719116211	1573.57568359375	-1371.46630859375	-219.0683593750001	1555.17626953125	-1429.7900390625	-176.6246948242188	1553.97314453125	-1451.654174804688	-127.6245803833008	1491.891357421875	-1417.895874023438	87.7237014770508	1598.75830078125	-1520.083984375	54.37906646728517	1600.5859375	-1585.758056640625	146.9505310058594	1643.184204101563	-1546.694580078125	-347.8430175781251	1584.896728515625	-971.954284667969	-208.0052032470704	1573.857299804688	-848.1832275390627	-187.9125518798828	1602.367553710938	-885.3970947265627	-141.0665893554688	1597.185791015625	-848.6722412109377	-96.73854827880862	1601.06201171875	-847.179626464844	-73.73056030273439	1522.613525390625	-872.9002075195315	170.6827850341797	1609.587036132813	-878.856140136719	160.5255279541016	1627.156982421875	-807.8789672851565	252.176254272461	1631.60888671875	-877.1051025390627	-269.4849853515626	1053.99853515625	-1157.422973632813	-284.2223815917969	1075.115478515625	-933.0937500000002	-456.8155212402345	1131.722290039063	-1061.593139648438	-470.1408691406251	1103.699096679688	-1085.896728515625	-474.7229003906251	1107.960815429688	-1031.518676757813	-367.4465637207032	835.6378173828127	-1206.36083984375	-324.7585144042969	763.2117919921876	-1196.01220703125	-277.9129638671876	771.493835449219	-1187.386108398438	-347.5491943359376	707.9347534179689	-1180.69189453125	-312.5452575683594	534.9774780273439	-1147.843994140625	-313.0770263671876	526.9366455078126	-1028.468872070313	-295.9425048828126	347.3245849609376	-1074.531860351563	-342.8352355957032	303.1028137207032	-1135.672973632813	-305.1954956054688	297.9164428710938	-1107.701416015625	-317.1781005859376	224.0794982910157	-1069.643432617188	-381.0688781738282	132.2444305419922	-1105.038452148438	-346.4291076660157	138.2560729980469	-1022.182861328125	-448.7332458496095	118.4740142822266	-1061.629272460938	-243.0769805908204	61.31074523925783	-1037.58837890625	-236.4654693603516	56.6779251098633	-1083.076416015625	-286.1296081542969	45.81998825073243	-1135.565185546875	-305.4482421875001	812.2811279296877	-850.1524047851565	-246.8377380371094	781.947448730469	-853.9011230468752	-219.0092468261719	797.537292480469	-861.230163574219	-237.7163696289063	698.2122802734376	-866.037048339844	-181.8780212402344	582.2409057617189	-868.9200439453127	-159.0244598388672	571.4748535156251	-986.0984497070315	-85.16225433349611	440.5874938964845	-874.7156372070315	-131.7682342529297	337.9140319824219	-859.5151977539065	-88.1549530029297	354.2711791992188	-860.4520263671877	-48.29469299316408	319.0996093750001	-887.1978759765627	-50.5004234313965	185.657958984375	-871.6469726562502	-31.85685348510743	218.1942749023438	-951.2835693359377	-82.22998046875001	122.6852111816407	-923.619079589844	109.686149597168	225.1788177490235	-931.270690917969	110.4918594360352	229.8061676025391	-879.2204589843752	83.06375885009767	186.9305114746094	-834.3426513671877	-4216.928222656251	853.243103027344	-3944.830810546876	
1139	5.69	-216.2041473388672	1780.24169921875	-1081.763916015625	-390.465301513672	1713.017333984375	-1161.870361328125	-373.5439453125001	1713.3408203125	-1009.71826171875	-429.5758361816407	1559.650634765625	-1097.239624023438	-451.7038879394532	1247.256958007813	-1073.705688476563	-267.0300903320313	1511.649658203125	-1100.440063476563	-360.4488220214844	1567.548706054688	-1241.930541992188	-270.6296691894532	1554.10986328125	-1381.824462890625	-227.1971282958985	1573.625732421875	-1371.291015625	-219.053207397461	1555.239379882813	-1429.6083984375	-176.6382293701172	1554.002319335938	-1451.518798828125	-127.7583084106446	1491.81884765625	-1417.73095703125	87.73953247070314	1598.693237304688	-1519.7763671875	54.5137176513672	1600.58251953125	-1585.551513671875	147.0035400390625	1643.121704101563	-1546.4365234375	-347.9304504394532	1584.856567382813	-971.7504882812502	-208.0491027832032	1573.804931640625	-848.0552368164065	-188.0383453369141	1602.277221679688	-885.1428222656252	-141.1965789794922	1597.016479492188	-848.468933105469	-96.89273071289065	1600.894409179688	-846.9064941406252	-73.75520324707033	1522.4423828125	-872.8145141601565	170.5797424316407	1609.493774414063	-878.699890136719	160.4961853027344	1627.01904296875	-807.6362915039065	251.9504699707032	1631.541015625	-876.8984375000002	-269.5688476562501	1053.981323242188	-1157.435302734375	-284.2366943359376	1075.060913085938	-933.1737060546877	-456.910858154297	1131.661865234375	-1061.576293945313	-467.9942016601564	1102.720825195313	-1085.881225585938	-475.404510498047	1107.956787109375	-1031.614624023438	-367.4636840820313	835.5461425781252	-1206.294921875	-324.7951660156251	763.1221313476564	-1195.931030273438	-277.8167114257813	771.4714965820315	-1187.263916015625	-347.4170227050782	707.9031982421876	-1180.582397460938	-312.2479248046876	534.9446411132814	-1147.758544921875	-312.9649658203126	526.9570312500001	-1028.310913085938	-295.8724975585938	347.3209228515626	-1074.415893554688	-342.7448120117188	303.1313476562501	-1135.605224609375	-305.1364746093751	297.7976379394532	-1107.588500976563	-317.1430664062501	224.0855255126954	-1069.590698242188	-381.0308532714844	132.2568664550782	-1104.940063476563	-346.4037780761719	138.2335510253907	-1022.150817871094	-448.8047790527345	118.5243148803711	-1061.597778320313	-243.0487518310547	61.27896881103517	-1037.589599609375	-236.4573364257813	56.73906707763673	-1083.044555664063	-286.0920104980469	45.86819076538087	-1135.494750976563	-305.5027465820313	812.2562255859377	-850.0735473632815	-246.878158569336	781.8964843750002	-853.8189697265627	-219.1300506591797	797.5256347656252	-861.2061157226565	-237.826400756836	698.1999511718751	-865.9808349609377	-182.1846008300782	582.1859741210939	-868.7952880859377	-159.2713775634766	571.2893676757814	-985.9794921875002	-85.49411773681642	440.4349060058595	-874.570007324219	-131.9998779296875	337.6247558593751	-859.190368652344	-88.5069046020508	354.1893310546876	-860.221618652344	-48.36978912353517	318.6790466308594	-887.032409667969	-50.94386672973634	185.5031433105469	-871.2755126953127	-32.35089492797852	217.9025268554688	-951.028503417969	-82.94899749755861	122.4354019165039	-923.2799072265627	109.2103652954102	224.8921051025391	-931.235534667969	110.1168365478516	229.5536499023438	-879.0466918945315	82.54796600341798	186.7698059082032	-834.1680297851565	-4216.642089843751	853.0656738281252	-3944.752441406251	
1140	5.695	-216.2037048339844	1780.2138671875	-1081.514526367188	-390.7596740722657	1712.93359375	-1161.691650390625	-373.4851379394532	1713.271606445313	-1009.364318847656	-429.5854797363282	1559.635864257813	-1097.1015625	-451.863250732422	1247.214721679688	-1073.678100585938	-267.0957946777344	1511.628051757813	-1100.205688476563	-360.4259033203126	1567.570190429688	-1241.766479492188	-270.6366577148438	1554.15283203125	-1381.6318359375	-227.2148437500001	1573.698120117188	-1371.114990234375	-220.3524932861329	1555.869995117188	-1430.239013671875	-176.6085815429688	1554.00244140625	-1451.24560546875	-127.8065414428711	1491.811645507813	-1417.641723632813	87.67601776123048	1598.577392578125	-1519.4892578125	54.43252182006837	1600.593627929688	-1585.310180664063	147.078857421875	1642.994384765625	-1546.228881835938	-347.8749694824219	1584.952270507813	-971.733581542969	-208.3611602783204	1573.735107421875	-847.7718505859377	-188.1850738525391	1602.146606445313	-884.9592895507815	-141.3442993164063	1596.856689453125	-848.1719360351565	-97.16485595703128	1600.722290039063	-846.3816528320315	-73.90049743652345	1522.239501953125	-872.529479980469	170.4024658203125	1609.414306640625	-878.4449462890627	160.4796142578125	1626.869873046875	-807.3801879882815	251.7673339843751	1631.452758789063	-876.6124267578127	-269.6389465332032	1053.918334960938	-1157.483520507813	-284.2697448730469	1075.059326171875	-933.1821289062502	-456.9772338867189	1131.587524414063	-1061.521850585938	-468.1116333007814	1102.668334960938	-1085.838500976563	-475.3943786621095	1107.846923828125	-1031.546630859375	-367.5140075683594	835.4837036132815	-1206.250366210938	-324.8160095214844	763.0363769531251	-1195.885375976563	-277.8562011718751	771.5254516601565	-1187.216186523438	-347.3157958984376	707.8367309570314	-1180.495971679688	-312.1162109375001	534.9869384765626	-1147.745361328125	-312.6534118652344	526.9119262695314	-1028.235107421875	-295.8533630371094	347.2494812011719	-1074.271850585938	-342.5652160644532	303.1142578125001	-1135.5361328125	-305.0961914062501	297.7320251464844	-1107.487182617188	-317.0743713378907	223.9397277832032	-1069.507446289063	-381.0874938964844	132.2732849121094	-1104.94580078125	-346.4006042480469	138.2845306396485	-1022.10498046875	-448.7268981933595	118.3970108032227	-1061.577758789063	-243.0397491455079	61.29158782958986	-1037.583740234375	-236.4469299316407	56.72019195556642	-1083.043090820313	-285.6511840820313	45.65670776367188	-1135.38916015625	-305.5831298828126	812.2574462890627	-849.9981079101565	-246.9884185791016	781.8977050781252	-853.777282714844	-219.2157592773438	797.4539794921877	-861.0925903320315	-237.9311523437501	698.0784912109376	-865.9673461914065	-182.4104919433594	582.1987915039064	-868.6530761718752	-159.6116790771485	571.1918945312501	-985.8498535156252	-85.65313720703126	440.2971191406251	-874.4465942382815	-132.5467224121094	337.5744323730469	-858.851989746094	-88.79092407226564	354.0192871093751	-860.0788574218752	-48.9764747619629	318.6440734863282	-886.6868286132815	-51.59420013427736	185.4699401855469	-870.8962402343752	-32.82058334350587	217.6563262939454	-950.8090820312502	-83.58894348144533	122.41748046875	-922.9797363281252	108.8855895996094	224.6907043457032	-931.1405029296877	109.5858230590821	229.5711975097657	-879.0607910156252	82.33709716796876	186.5996856689453	-834.0738525390627	-4216.926757812501	853.149353027344	-3944.785156250001	
1141	5.7	-216.1412353515626	1780.19287109375	-1081.390869140625	-390.5321044921876	1713.018310546875	-1161.387451171875	-373.4048461914063	1713.287841796875	-1009.113037109375	-429.6446228027345	1559.645629882813	-1096.9208984375	-451.906707763672	1247.168579101563	-1073.68017578125	-266.9218444824219	1511.395141601563	-1100.10888671875	-360.5245361328126	1567.621948242188	-1241.642944335938	-270.6077575683594	1554.198486328125	-1381.478393554688	-227.1871795654297	1573.691162109375	-1370.92724609375	-220.2604064941407	1555.929443359375	-1430.015502929688	-176.6580657958985	1554.115478515625	-1451.230346679688	-127.8579788208008	1491.764770507813	-1417.480346679688	87.72363281250001	1598.572265625	-1519.2861328125	54.49672317504884	1600.5947265625	-1585.102416992188	147.172103881836	1642.839599609375	-1545.9853515625	-347.9977722167969	1584.887817382813	-971.542175292969	-208.4042510986329	1573.591552734375	-847.6196899414065	-188.2152557373047	1602.075927734375	-884.7830810546877	-141.4246673583985	1596.720825195313	-847.9068603515627	-97.01496124267581	1600.635375976563	-846.392517089844	-74.0251922607422	1522.072021484375	-872.249938964844	170.3120269775391	1609.234252929688	-878.2183227539065	160.4210662841797	1626.731201171875	-807.088073730469	251.6891784667969	1631.439453125	-876.3420410156252	-269.7988586425782	1053.934692382813	-1157.525512695313	-284.2980346679688	1075.077026367188	-933.1663818359377	-457.0582580566407	1131.534912109375	-1061.505126953125	-468.2574768066407	1102.582275390625	-1085.837158203125	-475.583709716797	1107.871215820313	-1031.510498046875	-367.5285949707032	835.390075683594	-1206.17822265625	-324.7969665527344	763.0435180664064	-1195.842407226563	-277.5708923339844	771.398864746094	-1187.1220703125	-347.3317260742188	707.7780761718751	-1180.459716796875	-311.8633728027344	534.9036254882814	-1147.621337890625	-312.5310058593751	526.9066772460939	-1028.075073242188	-295.7758178710938	347.2959594726563	-1074.190063476563	-342.4510192871094	303.1083068847657	-1135.503784179688	-305.0484924316407	297.7321777343751	-1107.406372070313	-317.0336608886719	223.9248352050782	-1069.407836914063	-381.0234680175782	132.2499237060547	-1104.916137695313	-346.4029235839844	138.2178039550782	-1022.060546875	-448.7349243164064	118.4049453735352	-1061.572509765625	-243.0505523681641	61.25865173339845	-1037.581298828125	-236.4553985595704	56.661678314209	-1083.030883789063	-286.0962524414063	45.88838958740235	-1135.48486328125	-305.6092224121094	812.2354736328127	-849.9542236328127	-247.2539062500001	781.831237792969	-853.6719360351565	-219.2859954833985	797.3953857421877	-861.1088867187502	-238.1412658691407	697.9426879882814	-865.8767089843752	-182.6302490234375	582.0988769531251	-868.5295410156252	-159.8093414306641	571.0665283203126	-985.7810058593752	-85.89974975585939	440.1015014648439	-874.3206787109377	-132.8583374023438	337.6922607421876	-858.8238525390627	-89.10362243652345	353.8809204101563	-859.941589355469	-49.31645965576173	318.4905090332032	-886.4221191406252	-52.15016937255861	185.2588348388672	-870.6129150390627	-33.3137321472168	217.4177856445313	-950.5274047851565	-83.75887298583986	122.3300399780274	-922.764099121094	108.4310531616211	224.3327941894532	-930.7864990234377	109.3409652709961	229.0449981689454	-878.825378417969	81.77072906494142	186.2966766357422	-833.9002685546877	-4217.340820312501	853.221618652344	-3944.708984375001	
